# xmcd
#
# Track frame offsets:
#	150
#	10843
#	20897
#	33767
#	43412
#	55104
#	65945
#	77615
#	90697
#	101092
#	108389
#	120243
#	132964
#	144171
#	156384
#	171123
#	180515
#	190945
#	202015
#	213147
#
# Disc length: 2993 seconds
#
# Revision: 0
# Processed by: cddbd v1.5.2PL0 Copyright (c) Steve Scherf et al.
# Submitted via: EasyCDDAExtractor 16.0.6.1
#
DISCID=150baf14
DTITLE=Artisti Vari - Country and Western Ladies [CD02)
DYEAR=2014
DGENRE=country
TTITLE0=Patsy Cline - I Don't Wanta
TTITLE1=Skeeter Davis - Homebreaker
TTITLE2=Kitty Wells - Cheatin's A Sin
TTITLE3=Patty and Marvin Rainwater - Two Fools In Love
TTITLE4=The Maddox Brothers and Rose - Tomorrow Land
TTITLE5=Jean Shepard - A Satisfied Mind
TTITLE6=Goldie Hill - I Let The Stars Get In My Eyes
TTITLE7=Patsy Montana - I'm An Old Cowhand
TTITLE8=Bonnie Lou - Seven Lonely Days
TTITLE9=Dolly Parton - Puppy Love
TTITLE10=Carolyn Bradshaw - The Marriage Of Mexican Joe
TTITLE11=Kitty Wells - All The Time
TTITLE12=The Maddox Brothers and Rose - Hummingbird
TTITLE13=Bonnie Guitar - Dark Moon
TTITLE14=Patsy Montana - The She Buckaroo
TTITLE15=Skeeter Davis - I Am That Easy To Forget
TTITLE16=Patsy Cline - I Love You, Honey
TTITLE17=Kitty Weòòs and Webb Pierce - One Week Later
TTITLE18=The Maddox Brothers and Rose - Stop Whistlin' Wolf
TTITLE19=Goldie Hill - Waiting For A Letter
EXTD=
EXTT0=
EXTT1=
EXTT2=
EXTT3=
EXTT4=
EXTT5=
EXTT6=
EXTT7=
EXTT8=
EXTT9=
EXTT10=
EXTT11=
EXTT12=
EXTT13=
EXTT14=
EXTT15=
EXTT16=
EXTT17=
EXTT18=
EXTT19=
PLAYORDER=
